<mxfile host="app.diagrams.net" modified="2020-09-14T10:35:27.149Z" agent="5.0 (Macintosh)" etag="DpyFUPb1b5wi4Xyd7QFQ" version="13.6.10" type="github">
  <diagram id="oV9ivTpqu0Y3tAoBFJ3n" name="Page-1">
    <mxGraphModel dx="946" dy="583" grid="1" gridSize="10" guides="1" tooltips="1" connect="1" arrows="1" fold="1" page="1" pageScale="1" pageWidth="827" pageHeight="1169" math="0" shadow="0">
      <root>
        <mxCell id="0" />
        <mxCell id="1" parent="0" />
        <mxCell id="nhmEw6V14H59cSuk4KH0-6" style="edgeStyle=orthogonalEdgeStyle;rounded=0;orthogonalLoop=1;jettySize=auto;html=1;exitX=0.55;exitY=0.95;exitDx=0;exitDy=0;exitPerimeter=0;entryX=0.4;entryY=0.1;entryDx=0;entryDy=0;entryPerimeter=0;" edge="1" parent="1" source="nhmEw6V14H59cSuk4KH0-1" target="nhmEw6V14H59cSuk4KH0-2">
          <mxGeometry relative="1" as="geometry" />
        </mxCell>
        <mxCell id="nhmEw6V14H59cSuk4KH0-7" style="edgeStyle=orthogonalEdgeStyle;rounded=0;orthogonalLoop=1;jettySize=auto;html=1;exitX=0.55;exitY=0.95;exitDx=0;exitDy=0;exitPerimeter=0;entryX=0.4;entryY=0.1;entryDx=0;entryDy=0;entryPerimeter=0;" edge="1" parent="1" source="nhmEw6V14H59cSuk4KH0-1" target="nhmEw6V14H59cSuk4KH0-3">
          <mxGeometry relative="1" as="geometry" />
        </mxCell>
        <mxCell id="nhmEw6V14H59cSuk4KH0-1" value="&lt;div&gt;Inkplate.h&lt;/div&gt;&lt;div&gt;Inkplate.cpp&lt;/div&gt;" style="ellipse;shape=cloud;whiteSpace=wrap;html=1;" vertex="1" parent="1">
          <mxGeometry x="354" y="120" width="120" height="80" as="geometry" />
        </mxCell>
        <mxCell id="nhmEw6V14H59cSuk4KH0-12" style="edgeStyle=orthogonalEdgeStyle;rounded=0;orthogonalLoop=1;jettySize=auto;html=1;exitX=0.55;exitY=0.95;exitDx=0;exitDy=0;exitPerimeter=0;entryX=0.4;entryY=0.1;entryDx=0;entryDy=0;entryPerimeter=0;" edge="1" parent="1" source="nhmEw6V14H59cSuk4KH0-2" target="nhmEw6V14H59cSuk4KH0-8">
          <mxGeometry relative="1" as="geometry">
            <Array as="points">
              <mxPoint x="346" y="350" />
              <mxPoint x="178" y="350" />
            </Array>
          </mxGeometry>
        </mxCell>
        <mxCell id="nhmEw6V14H59cSuk4KH0-13" style="edgeStyle=orthogonalEdgeStyle;rounded=0;orthogonalLoop=1;jettySize=auto;html=1;exitX=0.55;exitY=0.95;exitDx=0;exitDy=0;exitPerimeter=0;entryX=0.4;entryY=0.1;entryDx=0;entryDy=0;entryPerimeter=0;" edge="1" parent="1" source="nhmEw6V14H59cSuk4KH0-2" target="nhmEw6V14H59cSuk4KH0-9">
          <mxGeometry relative="1" as="geometry">
            <Array as="points">
              <mxPoint x="346" y="350" />
              <mxPoint x="298" y="350" />
            </Array>
          </mxGeometry>
        </mxCell>
        <mxCell id="nhmEw6V14H59cSuk4KH0-14" style="edgeStyle=orthogonalEdgeStyle;rounded=0;orthogonalLoop=1;jettySize=auto;html=1;exitX=0.55;exitY=0.95;exitDx=0;exitDy=0;exitPerimeter=0;entryX=0.4;entryY=0.1;entryDx=0;entryDy=0;entryPerimeter=0;" edge="1" parent="1" source="nhmEw6V14H59cSuk4KH0-2" target="nhmEw6V14H59cSuk4KH0-10">
          <mxGeometry relative="1" as="geometry">
            <Array as="points">
              <mxPoint x="346" y="350" />
              <mxPoint x="418" y="350" />
            </Array>
          </mxGeometry>
        </mxCell>
        <mxCell id="nhmEw6V14H59cSuk4KH0-2" value="&lt;div&gt;System.h&lt;/div&gt;&lt;div&gt;System.cpp&lt;/div&gt;" style="ellipse;shape=cloud;whiteSpace=wrap;html=1;" vertex="1" parent="1">
          <mxGeometry x="280" y="250" width="120" height="80" as="geometry" />
        </mxCell>
        <mxCell id="nhmEw6V14H59cSuk4KH0-20" style="edgeStyle=orthogonalEdgeStyle;rounded=0;orthogonalLoop=1;jettySize=auto;html=1;exitX=0.55;exitY=0.95;exitDx=0;exitDy=0;exitPerimeter=0;entryX=0.4;entryY=0.1;entryDx=0;entryDy=0;entryPerimeter=0;" edge="1" parent="1" source="nhmEw6V14H59cSuk4KH0-3" target="nhmEw6V14H59cSuk4KH0-17">
          <mxGeometry relative="1" as="geometry" />
        </mxCell>
        <mxCell id="nhmEw6V14H59cSuk4KH0-21" style="edgeStyle=orthogonalEdgeStyle;rounded=0;orthogonalLoop=1;jettySize=auto;html=1;exitX=0.55;exitY=0.95;exitDx=0;exitDy=0;exitPerimeter=0;entryX=0.4;entryY=0.1;entryDx=0;entryDy=0;entryPerimeter=0;" edge="1" parent="1" source="nhmEw6V14H59cSuk4KH0-3" target="nhmEw6V14H59cSuk4KH0-15">
          <mxGeometry relative="1" as="geometry">
            <Array as="points">
              <mxPoint x="506" y="360" />
              <mxPoint x="642" y="360" />
            </Array>
          </mxGeometry>
        </mxCell>
        <mxCell id="nhmEw6V14H59cSuk4KH0-3" value="&lt;div&gt;Graphics&lt;/div&gt;" style="ellipse;shape=cloud;whiteSpace=wrap;html=1;" vertex="1" parent="1">
          <mxGeometry x="440" y="250" width="120" height="80" as="geometry" />
        </mxCell>
        <mxCell id="nhmEw6V14H59cSuk4KH0-8" value="&lt;div&gt;Esp.h&lt;/div&gt;&lt;div&gt;Esp.cpp&lt;br&gt;&lt;/div&gt;" style="ellipse;shape=cloud;whiteSpace=wrap;html=1;" vertex="1" parent="1">
          <mxGeometry x="130" y="390" width="120" height="80" as="geometry" />
        </mxCell>
        <mxCell id="nhmEw6V14H59cSuk4KH0-9" value="&lt;div&gt;Mcp.h&lt;/div&gt;&lt;div&gt;Mcp.cpp&lt;br&gt;&lt;/div&gt;" style="ellipse;shape=cloud;whiteSpace=wrap;html=1;" vertex="1" parent="1">
          <mxGeometry x="250" y="390" width="120" height="80" as="geometry" />
        </mxCell>
        <mxCell id="nhmEw6V14H59cSuk4KH0-10" value="NetworkClient" style="ellipse;shape=cloud;whiteSpace=wrap;html=1;" vertex="1" parent="1">
          <mxGeometry x="370" y="530" width="120" height="80" as="geometry" />
        </mxCell>
        <mxCell id="nhmEw6V14H59cSuk4KH0-28" style="edgeStyle=orthogonalEdgeStyle;rounded=0;orthogonalLoop=1;jettySize=auto;html=1;exitX=0.55;exitY=0.95;exitDx=0;exitDy=0;exitPerimeter=0;entryX=0.4;entryY=0.1;entryDx=0;entryDy=0;entryPerimeter=0;" edge="1" parent="1" source="nhmEw6V14H59cSuk4KH0-15" target="nhmEw6V14H59cSuk4KH0-23">
          <mxGeometry relative="1" as="geometry" />
        </mxCell>
        <mxCell id="nhmEw6V14H59cSuk4KH0-15" value="&lt;div&gt;Shapes&lt;/div&gt;" style="ellipse;shape=cloud;whiteSpace=wrap;html=1;" vertex="1" parent="1">
          <mxGeometry x="594" y="390" width="120" height="80" as="geometry" />
        </mxCell>
        <mxCell id="nhmEw6V14H59cSuk4KH0-22" style="edgeStyle=orthogonalEdgeStyle;rounded=0;orthogonalLoop=1;jettySize=auto;html=1;exitX=0.55;exitY=0.95;exitDx=0;exitDy=0;exitPerimeter=0;entryX=0.4;entryY=0.1;entryDx=0;entryDy=0;entryPerimeter=0;" edge="1" parent="1" source="nhmEw6V14H59cSuk4KH0-17" target="nhmEw6V14H59cSuk4KH0-10">
          <mxGeometry relative="1" as="geometry" />
        </mxCell>
        <mxCell id="nhmEw6V14H59cSuk4KH0-27" style="edgeStyle=orthogonalEdgeStyle;rounded=0;orthogonalLoop=1;jettySize=auto;html=1;exitX=0.8;exitY=0.8;exitDx=0;exitDy=0;exitPerimeter=0;entryX=0.4;entryY=0.1;entryDx=0;entryDy=0;entryPerimeter=0;" edge="1" parent="1" source="nhmEw6V14H59cSuk4KH0-17" target="nhmEw6V14H59cSuk4KH0-23">
          <mxGeometry relative="1" as="geometry" />
        </mxCell>
        <mxCell id="nhmEw6V14H59cSuk4KH0-17" value="&lt;div&gt;Image.h&lt;/div&gt;&lt;div style=&quot;font-size: 5px&quot;&gt;&lt;font style=&quot;font-size: 5px&quot;&gt;ImageBMP.cpp&lt;/font&gt;&lt;/div&gt;&lt;div style=&quot;font-size: 5px&quot;&gt;&lt;font style=&quot;font-size: 5px&quot;&gt;ImageJPEG.cpp&lt;br&gt;ImagePNG.cpp&lt;br&gt;ImageDither.cpp&lt;/font&gt;&lt;br&gt;&lt;/div&gt;" style="ellipse;shape=cloud;whiteSpace=wrap;html=1;" vertex="1" parent="1">
          <mxGeometry x="474" y="390" width="120" height="80" as="geometry" />
        </mxCell>
        <mxCell id="nhmEw6V14H59cSuk4KH0-23" value="AdafruitGFX" style="ellipse;shape=cloud;whiteSpace=wrap;html=1;" vertex="1" parent="1">
          <mxGeometry x="540" y="530" width="120" height="80" as="geometry" />
        </mxCell>
      </root>
    </mxGraphModel>
  </diagram>
</mxfile>
